<?xml version="1.0" standalone="no"?>
<!DOCTYPE svg PUBLIC "-//W3C//DTD SVG 20010904//EN"
 "http://www.w3.org/TR/2001/REC-SVG-20010904/DTD/svg10.dtd">
<svg version="1.0" xmlns="http://www.w3.org/2000/svg"
 width="700.000000pt" height="700.000000pt" viewBox="0 0 700.000000 700.000000"
 preserveAspectRatio="xMidYMid meet">
<metadata>
Created by potrace 1.11, written by Peter Selinger 2001-2013
</metadata>
<g transform="translate(0.000000,700.000000) scale(0.100000,-0.100000)"
fill="#000000" stroke="none">
<path d="M3325 6838 c-11 -11 -27 -40 -36 -66 -28 -82 -101 -277 -106 -282 -2
-2 -18 11 -34 30 -16 18 -47 53 -69 76 -64 70 -126 64 -151 -14 -6 -20 -15
-41 -19 -47 -4 -5 -22 -52 -41 -102 -19 -51 -37 -93 -41 -93 -7 0 -256 150
-301 182 -15 11 -36 21 -46 23 -24 4 -57 -19 -64 -44 -3 -13 49 -128 145 -322
158 -319 157 -318 93 -319 -16 -1 -46 -3 -65 -5 -43 -4 -197 -15 -305 -21
-179 -10 -185 -14 -192 -152 -2 -53 -6 -119 -8 -147 -2 -27 -4 -69 -4 -92 l-1
-42 -34 20 c-33 19 -54 18 -83 -6 -9 -7 -50 -189 -59 -260 -4 -27 -8 -53 -10
-56 -8 -14 -56 5 -64 25 -11 29 -49 61 -85 73 -39 13 -85 0 -119 -33 -25 -26
-30 -43 -26 -94 7 -95 144 -134 209 -61 20 22 35 30 52 28 l23 -4 1 -164 c2
-221 17 -251 112 -223 l42 12 -4 -72 c-18 -342 -18 -364 1 -393 10 -15 29 -48
42 -73 14 -25 31 -52 38 -61 8 -8 14 -19 14 -22 0 -4 20 -40 44 -80 24 -39 51
-86 59 -104 l17 -31 -38 -24 c-20 -12 -51 -32 -69 -43 -17 -11 -49 -32 -70
-47 l-38 -27 -65 16 c-358 84 -652 -252 -501 -572 26 -55 112 -155 133 -155 5
0 8 -86 6 -192 l-3 -191 -28 -45 c-34 -55 -47 -85 -53 -132 -9 -67 6 -136 43
-197 l36 -58 1 -338 c1 -359 1 -361 48 -352 17 4 18 0 12 -28 -9 -38 -7 -88 5
-119 4 -13 5 -34 1 -48 -10 -39 -3 -81 17 -95 10 -7 21 -11 25 -9 16 10 28
-38 22 -84 -5 -42 -3 -52 21 -80 22 -27 30 -48 34 -94 1 -5 16 -8 34 -8 36 0
55 15 80 65 8 17 25 41 36 54 23 26 25 36 22 92 -2 35 13 62 41 71 13 5 29
138 17 138 -4 0 -2 19 4 42 7 30 7 53 -2 87 -8 30 -9 47 -2 49 5 2 21 12 35
23 24 19 24 23 23 135 -1 64 1 118 5 121 5 2 8 -5 8 -16 0 -32 21 -70 43 -77
11 -4 117 -6 234 -6 l213 0 0 -35 c0 -19 -6 -47 -14 -61 -31 -56 -66 -162 -66
-197 0 -19 6 -51 14 -70 12 -27 21 -34 48 -37 31 -3 33 -6 36 -44 2 -32 -4
-54 -32 -101 -20 -34 -40 -71 -46 -84 -6 -13 -18 -37 -28 -54 -10 -16 -38 -66
-62 -110 -23 -44 -51 -94 -62 -112 -15 -26 -18 -47 -16 -115 l3 -83 500 0 500
0 86 199 c118 271 134 309 132 317 -1 4 -3 45 -4 92 l-2 86 -61 1 c-33 0 -72
2 -86 4 -14 2 -31 5 -37 5 -19 1 -15 38 13 126 32 98 38 132 38 213 -1 34 2
62 5 63 39 6 378 2 382 -4 4 -5 -4 -28 -17 -51 -46 -83 -66 -289 -31 -323 8
-9 27 -15 41 -15 14 0 26 -4 26 -9 0 -5 -9 -9 -19 -9 -15 0 -27 -24 -61 -117
-23 -65 -43 -122 -44 -128 -2 -5 -8 -23 -14 -38 -7 -16 -12 -31 -12 -35 0 -4
-14 -43 -31 -87 -26 -70 -30 -92 -29 -175 1 -52 2 -100 2 -106 1 -11 991 -15
1001 -4 4 4 49 228 62 310 2 14 7 36 10 50 19 89 25 156 21 235 -2 50 -5 93
-5 96 -1 3 -21 6 -45 6 -23 0 -52 5 -62 11 -10 5 -27 8 -36 7 -14 -3 -16 0 -8
16 23 41 45 195 44 301 l0 76 64 0 c100 0 124 27 147 171 3 19 7 43 10 55 6
27 11 57 35 201 17 107 27 193 35 305 8 103 16 210 20 250 11 107 6 262 -8
276 -3 3 -1 18 4 34 l10 28 55 -36 c30 -19 54 -40 55 -46 4 -50 8 -97 13 -131
3 -22 8 -75 12 -117 5 -71 4 -79 -19 -110 -80 -106 -66 -288 28 -381 l29 -28
1 -212 c1 -117 -3 -227 -8 -246 -6 -22 -5 -43 3 -61 7 -16 12 -54 13 -84 1
-31 6 -56 10 -56 5 0 7 -19 5 -42 -3 -24 1 -63 7 -88 7 -25 9 -55 5 -65 -9
-24 -6 -82 3 -92 4 -4 15 -8 24 -9 69 -10 74 -21 48 -93 -8 -22 -12 -41 -8
-41 3 0 1 -6 -5 -13 -8 -10 -5 -20 14 -42 13 -16 27 -39 30 -52 7 -27 32 -43
67 -43 25 0 57 28 57 49 0 7 10 27 22 44 16 22 23 47 24 91 2 60 14 84 50 104
15 8 19 24 20 74 1 35 5 135 8 223 4 88 9 196 10 241 1 44 6 85 9 91 4 6 -1
13 -11 15 -15 4 -17 21 -17 155 l1 151 32 33 c112 115 111 291 -3 417 -52 57
-53 59 -60 138 -4 43 -9 88 -11 99 -2 11 -7 44 -11 74 -6 53 -6 54 34 90 90
81 144 198 144 311 1 59 -30 165 -62 215 -48 75 -134 142 -221 171 -60 20
-190 23 -235 7 -15 -6 -37 -15 -48 -19 -11 -4 -22 -8 -25 -8 -3 -1 -11 -5 -18
-10 -21 -13 -21 -5 -7 62 16 77 8 113 -26 122 -14 4 -168 7 -342 7 -175 0
-320 3 -324 7 -3 3 7 6 23 7 30 1 67 3 174 13 36 3 106 8 155 12 50 4 97 8
105 10 8 1 27 3 41 3 37 1 72 33 75 67 1 16 21 81 44 144 23 63 43 120 44 125
2 6 6 17 9 25 28 72 57 165 57 184 0 13 -21 106 -46 207 -25 101 -49 202 -54
224 -11 52 -18 81 -25 108 -5 18 -2 16 17 -8 54 -71 113 -113 171 -120 58 -8
63 2 42 97 -10 45 -30 129 -45 185 l-27 101 40 10 c31 8 43 8 54 -4 55 -55
150 -45 184 18 17 32 21 76 8 101 -14 27 -58 67 -76 68 -7 1 -19 2 -25 3 -43
6 -118 -54 -118 -94 0 -21 -66 -48 -80 -34 -5 5 -18 43 -29 84 -38 143 -42
155 -58 193 -18 41 -28 45 -63 20 -53 -36 -77 -79 -87 -150 -5 -37 -8 -43 -15
-28 -6 16 -65 246 -83 325 -1 8 -9 35 -15 60 -7 25 -13 53 -12 62 0 10 -4 20
-9 23 -5 4 -7 10 -4 14 2 5 -7 21 -20 35 -25 27 -26 27 -123 21 -331 -22 -391
-25 -397 -14 -5 8 16 128 70 399 2 8 11 56 20 105 9 50 18 95 19 100 17 72 17
107 1 125 -10 11 -30 20 -45 20 -22 0 -42 -19 -116 -112 -49 -62 -94 -119
-101 -125 -6 -7 -21 -25 -32 -39 -12 -15 -23 -25 -25 -23 -1 2 -32 47 -67 99
-35 52 -68 98 -74 102 -22 16 -74 8 -85 -13 -16 -30 -60 -180 -60 -206 0 -43
-17 -23 -62 75 -172 369 -168 363 -223 377 -5 1 -19 -7 -30 -17z m84 -210 c21
-46 66 -140 100 -211 34 -70 61 -131 61 -135 0 -20 43 -52 69 -52 45 0 46 1
112 243 l10 38 58 -89 c32 -49 66 -92 76 -95 40 -16 70 -7 100 29 17 20 42 51
58 68 15 17 37 46 50 63 19 28 58 59 43 35 -3 -5 -8 -22 -10 -38 -3 -16 -8
-40 -11 -54 -3 -14 -12 -63 -21 -110 -8 -47 -22 -119 -31 -160 -22 -109 -27
-141 -28 -177 0 -32 -1 -33 -45 -34 -25 -1 -54 -3 -65 -4 -11 -1 -76 -5 -145
-9 -69 -4 -141 -9 -160 -11 -19 -3 -73 -7 -120 -10 -164 -9 -246 -14 -315 -20
-73 -5 -152 -11 -295 -20 l-86 -6 -127 257 c-70 142 -125 259 -123 261 2 2 57
-29 122 -69 133 -81 170 -91 206 -53 13 13 23 28 23 32 1 26 92 233 103 233 6
0 12 -3 12 -7 1 -20 128 -142 153 -147 44 -10 67 24 127 187 29 81 55 147 57
147 1 0 20 -37 42 -82z m881 -2758 c0 -5 -5 -10 -11 -10 -5 0 -7 5 -4 10 3 6
8 10 11 10 2 0 4 -4 4 -10z"/>
</g>
</svg>
